<svg xmlns="http://www.w3.org/2000/svg" viewBox="0 0 180 180">
  <g transform="translate(-70, -50)">
    <!-- Tips -->
    <g>
        <!-- TOP -->
        <path d="M165,90 L166,60 173,95 Z" fill="#048F4F"/>
        
        <!-- RIGHT -->
        <path d="M223,144 L245,150 223,155 " fill="#048F4F"/>
    
        <!-- BOTTOM -->
        <path d="M160,208 L159,225 157,208 Z" fill="#fff"/>
        
        <!-- LEFT -->
        <path d="M109,153 L83,153 109,156 Z" fill="#fff"/>
    </g>

    <g fill="none" stroke-width="10" stroke-linecap="butt">
        <path
        d="M160,93 
            A55,55 0 0,0 106,148"
        stroke="#fff"
        stroke-width="6"
        />

        <path
        d="M165,95 
            A30,30 0 0,1 165,205"
        stroke="#048F4F"
        />

        <path
        d="M160,206
            A55,55 0 0,1 106,153"
        stroke="#fff"
        stroke-width="6"
        />

        <circle r="2" cx="115" cy="155" fill="#fff"/>
    </g>

    <g>
        <circle r="6" cx="160" cy="150" fill="#fff" />
        <path d="M166,150 L190,120 155,148" fill="#fff" />
        
        <circle r="6" cx="160" cy="150" fill="#048F4F" />
        <path d="M155,148 L131,180 161,156" fill="#048F4F" />
        
        <circle r="2" cx="160" cy="150" fill="#fff" />
    </g>
  </g>
</svg>

</svg>
