<?xml version="1.0" encoding="UTF-8" standalone="no"?>
<!-- Created with Inkscape (http://www.inkscape.org/) -->

<svg
   viewBox="0 0 1774.4827 110.99998"
   xmlns="http://www.w3.org/2000/svg" >
  <g
     transform="translate(-56.636534,-464.00002)">
    <g
       transform="matrix(0.85339505,0,0,0.83206021,21.666672,92.374979)">
      <g
         transform="matrix(1.1717903,0,0,1.2018361,1731.3575,-111.01958)">
        <circle
           cx="194.5"
           cy="542.5"
           r="32.5" />
        <path
           d="m 182.65807,544.07762 7.7978,10.12554 15.88607,-23.40614" />
        <text
           xml:space="preserve"
           x="128.47099"
           y="502.59613"
           transform="scale(1.0197032,0.98067751)"><tspan
             x="128.47099"
             y="502.59613"
             style="font-style:normal;font-variant:normal;font-weight:bold;font-stretch:condensed;font-size:37.3333px;font-family:'Agency FB';-inkscape-font-specification:'Agency FB, Bold Condensed';font-variant-ligatures:normal;font-variant-caps:normal;font-variant-numeric:normal;font-variant-east-asian:normal;fill:#ffffff;fill-opacity:1;fill-rule:evenodd;stroke:none;stroke-width:0;stroke-dasharray:none">Finalizado</tspan></text>
      </g>
      <g
         transform="matrix(1.1717903,0,0,1.2018361,1511.7642,-111.01958)">
        <circle
           cx="194.5"
           cy="542.5"
           r="32.5" />
        <text
           style="font-style:normal;font-variant:normal;font-weight:bold;font-stretch:condensed;font-size:37.3333px;font-family:'Agency FB';-inkscape-font-specification:'Agency FB, Bold Condensed';font-variant-ligatures:normal;font-variant-caps:normal;font-variant-numeric:normal;font-variant-east-asian:normal;text-align:start;writing-mode:lr-tb;direction:ltr;text-anchor:start;fill:#ffffff;fill-opacity:1;fill-rule:evenodd;stroke:none;stroke-width:0;stroke-linecap:round;stroke-linejoin:round;stroke-dasharray:none;stroke-opacity:1"
           x="136.31865"
           y="502.59613"
           transform="scale(1.0197032,0.98067751)"><tspan
             x="136.31865"
             y="502.59613"
             style="font-style:normal;font-variant:normal;font-weight:bold;font-stretch:condensed;font-size:37.3333px;font-family:'Agency FB';-inkscape-font-specification:'Agency FB, Bold Condensed';font-variant-ligatures:normal;font-variant-caps:normal;font-variant-numeric:normal;font-variant-east-asian:normal;fill:#ffffff;fill-opacity:1;fill-rule:evenodd;stroke:none;stroke-width:0;stroke-dasharray:none">Retirada</tspan></text>
        <path
           d="m 182.65807,544.07762 7.7978,10.12554 15.88607,-23.40614"
        />
      </g>
      <g
         transform="matrix(1.1717903,0,0,1.2018361,1292.1709,-111.01958)">
        <circle
           id="circle221"
           cx="194.5"
           cy="542.5"
           r="32.5" />
        <text
           style="font-style:normal;font-variant:normal;font-weight:bold;font-stretch:condensed;font-size:37.3333px;font-family:'Agency FB';-inkscape-font-specification:'Agency FB, Bold Condensed';font-variant-ligatures:normal;font-variant-caps:normal;font-variant-numeric:normal;font-variant-east-asian:normal;text-align:start;writing-mode:lr-tb;direction:ltr;text-anchor:start;fill:#ffffff;fill-opacity:1;fill-rule:evenodd;stroke:none;stroke-width:0;stroke-linecap:round;stroke-linejoin:round;stroke-dasharray:none;stroke-opacity:1"
           x="139.02568"
           y="501.67093"
           transform="scale(1.0197032,0.98067751)"><tspan
             x="139.02568"
             y="501.67093"
             style="font-style:normal;font-variant:normal;font-weight:bold;font-stretch:condensed;font-size:37.3333px;font-family:'Agency FB';-inkscape-font-specification:'Agency FB, Bold Condensed';font-variant-ligatures:normal;font-variant-caps:normal;font-variant-numeric:normal;font-variant-east-asian:normal;fill:#ffffff;fill-opacity:1;fill-rule:evenodd;stroke:none;stroke-width:0;stroke-dasharray:none">Em Rota</tspan></text>
        <path
           d="m 182.65807,544.07762 7.7978,10.12554 15.88607,-23.40614"
          />
      </g>
      <g
         transform="matrix(1.1717903,0,0,1.2018361,1072.5776,-111.01958)">
        <circle
           cx="194.5"
           cy="542.5"
           r="32.5" />
        <path
           d="m 182.65807,544.07762 7.7978,10.12554 15.88607,-23.40614"
         />
        <text
           x="129.14548"
           y="502.59613"
           id="text227-4-1-6-7-1-1-0"
           transform="scale(1.0197032,0.98067751)"><tspan
             id="tspan227-2-6-1-9-2-1-24"
             x="129.14548"
             y="502.59613"
             style="font-style:normal;font-variant:normal;font-weight:bold;font-stretch:condensed;font-size:37.3333px;font-family:'Agency FB';-inkscape-font-specification:'Agency FB, Bold Condensed';font-variant-ligatures:normal;font-variant-caps:normal;font-variant-numeric:normal;font-variant-east-asian:normal;fill:#ffffff;fill-opacity:1;fill-rule:evenodd;stroke:none;stroke-width:0;stroke-dasharray:none">Concluido</tspan></text>
      </g>
      <g
         transform="matrix(1.1717903,0,0,1.2018361,852.98436,-111.01958)">
        <circle
           id="circle219"
           cx="194.5"
           cy="542.5"
           r="32.5" />
        <path
           d="m 182.65807,544.07762 7.7978,10.12554 15.88607,-23.40614"
           />
        <text
           x="130.90459"
           y="501.67093"
           transform="scale(1.0197032,0.98067751)"><tspan
             id="tspan227-2-6-1-9"
             x="130.90459"
             y="501.67093"
             style="font-style:normal;font-variant:normal;font-weight:bold;font-stretch:condensed;font-size:37.3333px;font-family:'Agency FB';-inkscape-font-specification:'Agency FB, Bold Condensed';font-variant-ligatures:normal;font-variant-caps:normal;font-variant-numeric:normal;font-variant-east-asian:normal;fill:#ffffff;fill-opacity:1;fill-rule:evenodd;stroke:none;stroke-width:0;stroke-dasharray:none">Impresso</tspan></text>
      </g>
      <g
         transform="matrix(1.1717903,0,0,1.2018361,633.39108,-111.01958)">
        <circle
           cx="194.5"
           cy="542.5"
           r="32.5" />
        <text
           x="124.56084"
           y="503.46606"
           transform="scale(1.0197032,0.98067751)"><tspan
             x="124.56084"
             y="503.46606"
             style="font-style:normal;font-variant:normal;font-weight:bold;font-stretch:condensed;font-size:37.3333px;font-family:'Agency FB';-inkscape-font-specification:'Agency FB, Bold Condensed';font-variant-ligatures:normal;font-variant-caps:normal;font-variant-numeric:normal;font-variant-east-asian:normal;fill:#ffffff;fill-opacity:1;fill-rule:evenodd;stroke:none;stroke-width:0;stroke-dasharray:none">Confecção</tspan></text>
        <path
           d="m 182.65807,544.07762 7.7978,10.12554 15.88607,-23.40614"
           />
      </g>
      <g
         transform="matrix(1.1717903,0,0,1.2018361,413.79779,-111.01958)">
        <circle
           cx="194.5"
           cy="542.5"
           r="32.5" />
        <text
           x="115.65591"
           y="502.59613"
           transform="scale(1.0197032,0.98067751)"><tspan
             x="115.65591"
             y="502.59613"
             style="font-style:normal;font-variant:normal;font-weight:bold;font-stretch:condensed;font-size:37.3333px;font-family:'Agency FB';-inkscape-font-specification:'Agency FB, Bold Condensed';font-variant-ligatures:normal;font-variant-caps:normal;font-variant-numeric:normal;font-variant-east-asian:normal;fill:#ffffff;fill-opacity:1;fill-rule:evenodd;stroke:none;stroke-width:0;stroke-dasharray:none">Processado</tspan></text>
        <path
           d="m 182.65807,544.07762 7.7978,10.12554 15.88607,-23.40614"
            />
      </g>
      <g
         transform="matrix(1.1717903,0,0,1.2018361,194.20449,-111.01958)">
        <circle
           cx="194.5"
           cy="542.5"
           r="32.5" />
        <path
           d="m 182.65807,544.07762 7.7978,10.12554 15.88607,-23.40614"
           />
        <text
           x="146.38113"
           y="502.59613"
           id="text227-4"
           transform="scale(1.0197032,0.98067751)"><tspan
             x="146.38113"
             y="502.59613"
             style="font-style:normal;font-variant:normal;font-weight:bold;font-stretch:condensed;font-size:37.3333px;font-family:'Agency FB';-inkscape-font-specification:'Agency FB, Bold Condensed';font-variant-ligatures:normal;font-variant-caps:normal;font-variant-numeric:normal;font-variant-east-asian:normal;fill:#ffffff;fill-opacity:1;fill-rule:evenodd;stroke:none;stroke-width:0;stroke-dasharray:none">Medido</tspan></text>
      </g>
      <g
         transform="matrix(1.1717903,0,0,1.2018361,-25.388795,-111.01958)">
        <circle
           cx="194.5"
           cy="542.5"
           r="32.5" />
        <path
           d="m 182.65807,544.07762 7.7978,10.12554 15.88606,-23.40614"
            />
        <text
           x="129.77438"
           y="502.59613"
           transform="scale(1.0197032,0.98067751)"><tspan
             x="129.77438"
             y="502.59613"
             style="font-style:normal;font-variant:normal;font-weight:bold;font-stretch:condensed;font-size:37.3333px;font-family:'Agency FB';-inkscape-font-specification:'Agency FB, Bold Condensed';font-variant-ligatures:normal;font-variant-caps:normal;font-variant-numeric:normal;font-variant-east-asian:normal;fill:#ffffff;fill-opacity:1;fill-rule:evenodd;stroke:none;stroke-width:0;stroke-dasharray:none">Agendado</tspan></text>
      </g>
    </g>
    <g
       transform="matrix(0.85339505,0,0,0.83206021,21.666672,92.374982)">
      <rect
         width="87.88427"
         height="5.8589511"
         x="56.636532"
         y="539.5705"
         ry="2.9294755"
         transform="matrix(1.1717903,0,0,1.2018361,-25.388795,-111.01958)" />
      <rect
         width="87.88427"
         height="5.8589511"
         x="56.636532"
         y="539.5705"
         ry="2.9294755"
         transform="matrix(1.1717903,0,0,1.2018361,194.20449,-111.01958)" />
      <rect
         width="87.88427"
         height="5.8589511"
         x="56.636532"
         y="539.5705"
         ry="2.9294755"
         transform="matrix(1.1717903,0,0,1.2018361,413.79778,-111.01958)" />
      <rect
         width="87.88427"
         height="5.8589511"
         x="56.636532"
         y="539.5705"
         ry="2.9294755"
         transform="matrix(1.1717903,0,0,1.2018361,633.39108,-111.01958)" />
      <rect
         width="87.88427"
         height="5.8589511"
         x="56.636532"
         y="539.5705"
         ry="2.9294755"
         transform="matrix(1.1717903,0,0,1.2018361,852.98436,-111.01958)" />
      <rect
         width="87.88427"
         height="5.8589511"
         x="56.636532"
         y="539.5705"
         ry="2.9294755"
         transform="matrix(1.1717903,0,0,1.2018361,1072.5776,-111.01958)" />
      <rect
         width="87.88427"
         height="5.8589511"
         x="56.636532"
         y="539.5705"
         ry="2.9294755"
         transform="matrix(1.1717903,0,0,1.2018361,1292.1709,-111.01958)" />
      <rect
         width="87.88427"
         height="5.8589511"
         x="56.636532"
         y="539.5705"
         ry="2.9294755"
         transform="matrix(1.1717903,0,0,1.2018361,1511.7642,-111.01958)" />
      <rect
         width="87.88427"
         height="5.8589511"
         x="56.636532"
         y="539.5705"
         ry="2.9294755"
         transform="matrix(1.1717903,0,0,1.2018361,1731.3575,-111.01958)" />
      <rect
         width="87.88427"
         height="5.8589511"
         x="56.636532"
         y="539.5705"
         ry="2.9294755"
         transform="matrix(1.1717903,0,0,1.2018361,1950.9508,-111.01958)" />
    </g>
  </g>
</svg>
